<svg width="477" height="372" viewBox="0 0 477 372" fill="none" xmlns="http://www.w3.org/2000/svg">
<path fill-rule="evenodd" clip-rule="evenodd" d="M0 0L36.2635 58.2605C41.2277 56.7922 46.5147 56 52 56C76.7445 56 97.4523 72.1202 102.71 93.7151H141.854V109.715H103.703C102.327 121.716 96.2587 132.408 87.2423 140.163L231 371.122V109.715H200.59V93.7151H277.058V109.715H246V371.122L389.758 140.163C380.741 132.408 374.673 121.716 373.297 109.715H335.795V93.7151H374.29C379.548 72.1202 400.255 56 425 56C430.485 56 435.772 56.7922 440.737 58.2605L477 0H0ZM145.242 65H138.474C138.298 65 138.211 64.9023 138.211 64.707V30.4883H130.418C130.222 30.4883 130.125 30.3906 130.125 30.1953L130.183 23.4863C130.183 23.3301 130.261 23.252 130.418 23.252H153.211C153.425 23.252 153.533 23.3301 153.533 23.4863V30.1953C153.533 30.3906 153.455 30.4883 153.298 30.4883H145.418L145.476 64.707C145.476 64.9023 145.398 65 145.242 65ZM189.352 65H182.555C182.36 65 182.262 64.9023 182.262 64.707L182.321 23.4863C182.321 23.3301 182.399 23.252 182.555 23.252H189.294C189.45 23.252 189.528 23.3301 189.528 23.4863L189.587 64.707C189.587 64.9023 189.509 65 189.352 65ZM233.463 65H226.695C226.52 65 226.432 64.9023 226.432 64.707V30.4883H218.639C218.443 30.4883 218.346 30.3906 218.346 30.1953L218.404 23.4863C218.404 23.3301 218.482 23.252 218.639 23.252H241.432C241.646 23.252 241.754 23.3301 241.754 23.4863V30.1953C241.754 30.3906 241.676 30.4883 241.52 30.4883H233.639L233.697 64.707C233.697 64.9023 233.619 65 233.463 65ZM280.357 65.5859C278.228 65.5859 276.265 65.0391 274.468 63.9453C272.691 62.8516 271.255 61.3965 270.161 59.5801C269.087 57.7441 268.55 55.7324 268.55 53.5449L268.609 34.5312C268.609 32.3047 269.146 30.3027 270.22 28.5254C271.275 26.7285 272.7 25.293 274.497 24.2188C276.294 23.125 278.247 22.5781 280.357 22.5781C282.544 22.5781 284.507 23.1152 286.245 24.1895C288.003 25.2637 289.409 26.709 290.464 28.5254C291.538 30.3223 292.075 32.3242 292.075 34.5312L292.134 53.5449C292.134 55.7324 291.607 57.7344 290.552 59.5508C289.478 61.3867 288.052 62.8516 286.275 63.9453C284.497 65.0391 282.525 65.5859 280.357 65.5859ZM280.357 58.3496C281.568 58.3496 282.622 57.8613 283.521 56.8848C284.419 55.8887 284.868 54.7754 284.868 53.5449L284.81 34.5312C284.81 33.2031 284.39 32.0801 283.55 31.1621C282.71 30.2441 281.646 29.7852 280.357 29.7852C279.126 29.7852 278.071 30.2344 277.193 31.1328C276.314 32.0312 275.874 33.1641 275.874 34.5312V53.5449C275.874 54.8535 276.314 55.9863 277.193 56.9434C278.071 57.8809 279.126 58.3496 280.357 58.3496ZM329.008 65H323.002C322.69 65 322.534 64.8633 322.534 64.5898L322.475 23.7207C322.475 23.4082 322.631 23.252 322.944 23.252H328.364L338.5 46.8945L338.207 23.7207C338.207 23.4082 338.383 23.252 338.735 23.252H344.682C344.916 23.252 345.034 23.4082 345.034 23.7207L345.092 64.6484C345.092 64.8828 344.995 65 344.799 65H339.526L329.125 42.9102L329.565 64.5312C329.565 64.8438 329.379 65 329.008 65Z" fill="#1D5879"/>
</svg>
